<svg width="499" height="456" viewBox="0 0 499 456" fill="none" xmlns="http://www.w3.org/2000/svg">
<path opacity="0.752507" d="M263.803 12.2569C294.033 16.3483 324.074 19.5185 352.079 31.6506C381.338 44.3255 409.756 60.15 430.446 84.4476C451.695 109.402 461.338 141.248 471.849 172.305C483.501 206.732 505.094 242.199 495.718 277.294C486.342 312.392 445.115 327.664 422.714 356.227C399.189 386.223 395.098 435.194 360.093 450.224C325.031 465.278 284.622 443.819 248.673 430.955C218.593 420.191 193.628 400.514 167.953 381.47C145.13 364.54 123.529 346.942 105.633 324.852C87.2072 302.109 76.1685 275.53 61.5679 250.154C41.2209 214.792 -8.96982 184.178 2.1087 144.931C13.2734 105.378 76.7059 111.807 108.09 85.3439C133.367 64.0304 136.356 20.5485 166.277 6.50414C196.126 -7.50594 231.119 7.83347 263.803 12.2569Z" fill="#FF4878" fill-opacity="0.5"/>
</svg>
